<svg width="16" height="16" viewBox="0 0 16 16" fill="none" xmlns="http://www.w3.org/2000/svg">
<path d="M7.14286 8.85714H2.85715C2.61429 8.85714 2.41086 8.77486 2.24686 8.61029C2.08286 8.44571 2.00057 8.24229 2 8C1.99943 7.75771 2.08172 7.55429 2.24686 7.38971C2.412 7.22514 2.61543 7.14286 2.85715 7.14286H7.14286V2.85715C7.14286 2.61429 7.22514 2.41086 7.38971 2.24686C7.55429 2.08286 7.75771 2.00057 8 2C8.24229 1.99943 8.446 2.08172 8.61114 2.24686C8.77629 2.412 8.85829 2.61543 8.85714 2.85715V7.14286H13.1429C13.3857 7.14286 13.5894 7.22514 13.754 7.38971C13.9186 7.55429 14.0006 7.75771 14 8C13.9994 8.24229 13.9171 8.446 13.7531 8.61114C13.5891 8.77629 13.3857 8.85829 13.1429 8.85714H8.85714V13.1429C8.85714 13.3857 8.77486 13.5894 8.61029 13.754C8.44571 13.9186 8.24229 14.0006 8 14C7.75771 13.9994 7.55429 13.9171 7.38971 13.7531C7.22514 13.5891 7.14286 13.3857 7.14286 13.1429V8.85714Z" fill="currentColor"/>
</svg>
